<?xml version="1.0" encoding="UTF-8" standalone="no"?>
<!-- Created with Inkscape (http://www.inkscape.org/) -->

<svg
   xmlns:dc="http://purl.org/dc/elements/1.1/"
   xmlns:cc="http://creativecommons.org/ns#"
   xmlns:rdf="http://www.w3.org/1999/02/22-rdf-syntax-ns#"
   xmlns:svg="http://www.w3.org/2000/svg"
   xmlns="http://www.w3.org/2000/svg"
   version="1.1"
   width="307.13397"
   height="303.46262"
   id="svg2">
  <defs
     id="defs4" />
  <metadata
     id="metadata7">
    <rdf:RDF>
      <cc:Work
         rdf:about="">
        <dc:format>image/svg+xml</dc:format>
        <dc:type
           rdf:resource="http://purl.org/dc/dcmitype/StillImage" />
        <dc:title></dc:title>
      </cc:Work>
    </rdf:RDF>
  </metadata>
  <g
     transform="translate(-158.53146,-201.0743)"
     id="layer1">
    <path
       d="m 171.00073,415.26788 c 9.73408,22.72138 24.63874,42.23929 42.97564,57.45605 3.77819,2.73449 7.67361,5.32613 11.71592,7.69178 65.83632,38.52895 154.63246,18.26225 193.28193,-48.51448 34.73708,-60.01704 16.1602,-140.79649 -44.80158,-175.61265 -54.19519,-30.95168 -126.94998,-14.02728 -157.93097,41.11737 -27.17483,48.36986 -11.90746,113.14706 37.41691,140.29037 42.53968,23.40969 99.27786,9.77917 122.58002,-33.72025 19.66107,-36.70245 7.72952,-85.45107 -29.93761,-104.90696 -30.85437,-15.93697 -71.67311,-5.68356 -87.27498,26.13869 -12.2512,24.98805 -3.65509,57.89138 22.29868,69.62682 19.08657,8.6303 44.1762,1.75949 52.02457,-18.27424 2.56582,-6.5495 2.53347,-14.49859 0.0517,-21.00534 -2.48175,-6.50677 -7.04777,-11.46419 -14.03483,-13.43047 -3.38339,-0.95213 -8.32095,-0.53693 -11.76341,1.15118 -3.40539,1.66997 -5.20351,3.70262 -5.29817,7.33948 0.12077,-0.0663 0.60412,1.1365 1.12957,2.13292 a 6.0006,6.0006 0 0 1 8.50945,8.23104 c -1.79764,2.72898 -5.11949,4.95965 -8.48466,4.94064 -3.36516,-0.019 -5.79384,-1.63435 -7.54806,-3.26608 -3.50846,-3.26346 -5.73506,-6.88934 -5.654,-12.09249 0.13173,-8.45804 5.69105,-14.95008 12.05458,-18.07062 6.36351,-3.12055 13.6803,-3.77803 20.28685,-1.91887 10.88256,3.06247 18.40399,11.29447 21.99437,20.70782 3.59036,9.41335 3.63604,20.13354 -0.0878,29.63901 -10.61228,27.08884 -43.27435,36.10135 -68.14253,24.85678 -32.63103,-14.75467 -43.16479,-55.12824 -28.10612,-85.84253 18.76477,-38.27344 67.01626,-50.41506 103.56635,-31.53613 43.96876,22.71082 57.72532,78.88654 35.02348,121.26533 -26.6211,49.69511 -90.778,65.0779 -138.98054,38.55193 -55.44112,-30.5094 -72.44732,-102.63185 -42.09659,-156.65464 34.38319,-61.20042 114.50451,-79.85813 174.34497,-45.68237 33.4845,19.12348 55.30567,50.71654 63.99781,85.73882 8.69216,35.02227 4.27081,73.46837 -14.72966,106.29647 -19.22997,33.22462 -49.74445,55.83337 -84.02034,66.62467 81.72809,-18.11403 134.05203,-98.54144 117.12315,-180.82254 -17.0891,-83.0598 -98.26541,-136.54894 -181.32518,-119.45986 -83.05979,17.0891 -136.53651,98.29406 -119.44742,181.35385 2.13614,10.38246 5.27083,20.28147 9.28848,29.6595 z"
       id="path2985"
       style="fill:#ff0000;fill-opacity:1;stroke:none" />
  </g>
</svg>
